<svg width="24" height="21" viewBox="0 0 24 21" fill="none" xmlns="http://www.w3.org/2000/svg">
	<path d="M13.7143 21V17.4125L20.0286 10.9958C20.2 10.8208 20.3905 10.6944 20.6 10.6167C20.8095 10.5389 21.019 10.5 21.2286 10.5C21.4571 10.5 21.6762 10.5439 21.8857 10.6318C22.0952 10.7197 22.2857 10.8508 22.4571 11.025L23.5143 12.1042C23.6667 12.2792 23.7859 12.4736 23.872 12.6875C23.9581 12.9014 24.0007 13.1153 24 13.3292C24 13.5431 23.9619 13.762 23.8857 13.986C23.8095 14.21 23.6857 14.4091 23.5143 14.5833L17.2286 21H13.7143ZM21.2286 14.4667L22.2857 13.3292L21.2286 12.25L20.1428 13.3583L21.2286 14.4667ZM2.28571 18.6667C1.65714 18.6667 1.11924 18.4384 0.672 17.9818C0.224762 17.5253 0.000761904 16.9758 0 16.3333V2.33333C0 1.69167 0.224 1.14256 0.672 0.686C1.12 0.229444 1.6579 0.000777778 2.28571 0H9.14285L11.4286 2.33333H20.5714C21.2 2.33333 21.7383 2.562 22.1863 3.01933C22.6343 3.47667 22.8579 4.02578 22.8571 4.66667V8.51667C22.5905 8.4 22.3143 8.3125 22.0286 8.25417C21.7428 8.19583 21.4571 8.16667 21.1714 8.16667C20.6381 8.16667 20.1383 8.26389 19.672 8.45833C19.2057 8.65278 18.7817 8.94444 18.4 9.33333L11.4286 16.45V18.6667H2.28571Z" fill="#737791" />
</svg>
