<svg width="266" height="52" viewBox="0 0 266 52" fill="none" xmlns="http://www.w3.org/2000/svg">
	<path d="M8.96173 2.86102e-06C13.5933 -0.0654089 18.2247 -0.11553 22.8566 -0.146196C25.0075 -0.160915 27.1581 -0.180876 29.3088 -0.212865C31.3848 -0.24355 33.4605 -0.260402 35.5368 -0.267713C36.3284 -0.272922 37.12 -0.283095 37.9115 -0.298336C39.0215 -0.318859 40.1303 -0.321639 41.2405 -0.320332C41.5669 -0.330477 41.8933 -0.340622 42.2296 -0.351074C43.6102 -0.333516 44.4658 -0.285656 45.545 0.61371C46.1682 1.32443 46.7187 2.0438 47.2527 2.82171C47.5076 3.15972 47.7624 3.49774 48.025 3.84599C48.2438 4.16062 48.4626 4.47526 48.688 4.79942C49.0668 5.34152 49.0668 5.34152 49.4533 5.89456C49.7185 6.27727 49.9837 6.65997 50.2569 7.05427C50.8371 7.88569 51.4174 8.71708 51.9977 9.54845C52.2921 9.97143 52.5866 10.3944 52.89 10.8302C54.2635 12.8006 55.6466 14.7644 57.0291 16.7287C57.5659 17.4923 58.1027 18.256 58.6394 19.0197C59.7887 20.6546 60.9387 22.289 62.0892 23.9231C62.5318 24.5521 62.5318 24.5521 62.9834 25.1938C63.5476 25.9954 64.1119 26.7969 64.6765 27.5982C65.388 28.6095 66.0972 29.6223 66.8055 30.6357C66.9854 30.8897 67.1652 31.1437 67.3505 31.4055C68.4349 32.962 68.4349 32.962 68.4349 33.8605C68.7038 33.7274 68.9726 33.5944 69.2496 33.4574C69.2487 33.0501 69.2478 32.6428 69.2469 32.2232C69.2386 28.3913 69.2325 24.5595 69.2285 20.7276C69.2264 18.7574 69.2235 16.7873 69.2189 14.8171C69.2145 12.917 69.212 11.0169 69.211 9.11673C69.2102 8.39059 69.2088 7.66445 69.2066 6.93831C69.2036 5.92386 69.2032 4.90945 69.2034 3.895C69.2019 3.59259 69.2005 3.29018 69.199 2.9786C69.2032 0.898154 69.2032 0.898154 69.657 2.86102e-06C71.5059 -0.00993514 73.3549 -0.0172651 75.2039 -0.0221401C75.8333 -0.0241717 76.4628 -0.0269256 77.0922 -0.0304069C77.9951 -0.0352769 78.898 -0.0375789 79.801 -0.0393625C80.084 -0.041443 80.367 -0.0435235 80.6586 -0.0456671C81.3367 -0.0457462 82.0146 -0.0249456 82.6922 2.86102e-06C83.3709 0.671664 83.1678 1.48647 83.1832 2.41005C83.1913 2.83775 83.1994 3.26544 83.2078 3.70611C83.218 4.40396 83.218 4.40396 83.2284 5.11592C83.2369 5.58955 83.2454 6.06319 83.2541 6.55117C83.2808 8.07091 83.3048 9.59068 83.3287 11.1105C83.3463 12.1379 83.364 13.1653 83.382 14.1928C83.4257 16.7176 83.4672 19.2425 83.5069 21.7674C84.8553 20.8958 86.162 20.0357 87.3688 18.9788C87.6135 18.7662 87.8582 18.5537 88.1104 18.3347C88.364 18.1123 88.6176 17.89 88.8788 17.6609C91.0194 15.8036 93.1854 13.9905 95.398 12.2174C96.747 11.1202 98.0709 9.99626 99.3936 8.86822C109.867 -0.0533752 109.867 -0.0533759 112.5 -0.0457593C113.026 -0.0457137 113.026 -0.0457136 113.562 -0.0456671C113.941 -0.0435865 114.32 -0.041506 114.711 -0.0393625C115.098 -0.0387921 115.486 -0.0382217 115.885 -0.0376341C117.126 -0.0353733 118.367 -0.0303128 119.608 -0.0251909C120.449 -0.0231698 121.289 -0.0213304 122.129 -0.0196798C124.191 -0.0152295 126.253 -0.00826782 128.315 2.86102e-06C127.544 1.69516 126.377 2.68415 124.955 3.85465C124.702 4.06637 124.448 4.27808 124.187 4.49621C122.231 6.12051 120.231 7.68717 118.212 9.2354C116.296 10.7105 114.443 12.2515 112.603 13.819C111.464 14.7838 110.316 15.6795 109.068 16.5019C107.942 17.2077 107.942 17.2077 107.584 18.0624C107.518 19.4112 108.151 19.9671 108.992 21.0116C109.236 21.3205 109.236 21.3205 109.485 21.6356C109.852 22.0983 110.221 22.5593 110.592 23.0189C111.49 24.1347 112.373 25.2618 113.258 26.3881C113.743 27.0064 114.23 27.6242 114.716 28.2415C116.925 31.0451 119.084 33.8834 121.23 36.7345C122.231 38.063 123.237 39.388 124.242 40.7132C125.056 39.6791 125.743 38.6593 126.352 37.4963C126.524 37.1683 126.697 36.8403 126.875 36.5024C127.159 35.9554 127.159 35.9554 127.45 35.3973C127.655 35.0059 127.86 34.6144 128.071 34.2111C128.834 32.7517 129.593 31.2908 130.352 29.8295C130.512 29.5213 130.673 29.2131 130.838 28.8955C132.12 26.4279 133.401 23.9594 134.68 21.4903C134.859 21.1457 135.038 20.8011 135.222 20.4461C137.382 16.2783 139.524 12.103 141.624 7.90503C144.821 1.53762 144.821 1.53762 146.646 2.86102e-06C147.854 -0.130119 148.975 -0.188659 150.184 -0.188951C150.531 -0.19202 150.878 -0.195089 151.235 -0.198251C151.969 -0.202605 152.703 -0.203754 153.436 -0.201941C154.559 -0.201549 155.68 -0.218321 156.802 -0.236189C157.515 -0.238288 158.228 -0.239372 158.942 -0.239338C159.277 -0.245947 159.612 -0.252556 159.958 -0.259365C162.28 -0.231622 162.28 -0.231622 163.499 0.883951C164.147 1.99012 164.769 3.08625 165.337 4.23571C165.549 4.66232 165.762 5.08893 165.981 5.52847C166.204 5.9821 166.427 6.43573 166.657 6.9031C167.135 7.86184 167.614 8.82025 168.093 9.77835C168.444 10.4808 168.444 10.4808 168.802 11.1975C169.639 12.8543 170.51 14.4911 171.393 16.124C173.33 19.7175 175.16 23.3622 176.994 27.0078C179.773 32.5298 182.57 38.0383 185.601 43.4301C185.783 43.7528 185.964 44.0756 186.151 44.4081C186.357 44.774 186.357 44.774 186.567 45.1473C186.568 44.9171 186.57 44.6868 186.572 44.4496C186.614 38.8552 186.658 33.2608 186.705 27.6664C186.727 24.9611 186.749 22.2557 186.769 19.5503C186.789 16.9419 186.81 14.3334 186.833 11.725C186.841 10.7274 186.849 9.72979 186.855 8.73216C186.865 7.34017 186.877 5.94821 186.89 4.55624C186.893 4.1393 186.895 3.72236 186.897 3.29278C186.901 2.91574 186.905 2.5387 186.91 2.15024C186.913 1.65586 186.913 1.65586 186.917 1.15149C186.974 0.403104 186.974 0.403104 187.381 2.86102e-06C187.97 -0.0420265 188.56 -0.0562769 189.149 -0.0593219C189.531 -0.0622062 189.913 -0.0650905 190.307 -0.0680622C190.729 -0.0691462 191.152 -0.07023 191.587 -0.0713468C192.251 -0.0753201 192.251 -0.07532 192.928 -0.0793736C194.402 -0.0873588 195.876 -0.0920389 197.35 -0.0960485C197.854 -0.0976914 198.358 -0.0993342 198.877 -0.101027C201.273 -0.108583 203.67 -0.114448 206.066 -0.117801C208.82 -0.121718 211.573 -0.132263 214.327 -0.148638C216.72 -0.162374 219.113 -0.167047 221.506 -0.168674C222.518 -0.170626 223.53 -0.17528 224.543 -0.182798C239.149 -0.284433 239.149 -0.284433 244.708 4.65771C247.824 7.84001 248.528 12.2509 248.484 16.5271C248.177 21.1598 247.502 24.7298 244.029 27.9746C241.952 29.5701 239.501 30.4872 237.078 31.4419C238.689 34.4551 240.425 37.3491 242.297 40.2093C244.025 42.8753 245.751 45.541 247.415 48.2461C247.567 48.49 247.72 48.7338 247.877 48.985C248.551 50.0896 248.891 50.6836 248.891 52C246.739 52.1001 244.588 52.173 242.434 52.2214C241.703 52.2416 240.972 52.2691 240.241 52.3041C234.21 52.5855 234.21 52.5855 232.367 51.2327C231.606 50.1794 231.084 49.1537 230.561 47.969C230.151 47.2689 229.735 46.5723 229.313 45.8795C228.913 45.1744 228.514 44.4684 228.116 43.7616C227.692 43.0196 227.267 42.278 226.842 41.5367C226.641 41.1862 226.439 40.8356 226.232 40.4744C225.526 39.2505 224.81 38.0365 224.068 36.8333C223.871 36.5122 223.675 36.1911 223.472 35.8602C222.439 34.6064 221.495 33.9387 219.83 33.7555C218.624 33.7204 217.425 33.7247 216.219 33.7424C215.559 33.7449 215.559 33.7449 214.885 33.7476C213.482 33.7543 212.08 33.7695 210.677 33.7849C209.724 33.791 208.772 33.7965 207.82 33.8014C205.488 33.8147 203.156 33.835 200.824 33.8605C200.828 34.367 200.832 34.8735 200.837 35.3954C200.852 37.2727 200.861 39.1501 200.869 41.0274C200.873 41.8403 200.878 42.6532 200.885 43.4661C200.895 44.6338 200.9 45.8014 200.903 46.9691C200.908 47.3332 200.912 47.6973 200.916 48.0724C200.916 48.4113 200.916 48.7501 200.916 49.0993C200.918 49.3974 200.92 49.6954 200.922 50.0025C200.824 50.7907 200.824 50.7907 200.009 52C198.951 52.1671 198.951 52.1671 197.593 52.1885C197.086 52.1988 196.579 52.2091 196.056 52.2197C195.5 52.2243 194.944 52.2282 194.387 52.2315C193.818 52.2374 193.249 52.2434 192.679 52.2495C191.485 52.2604 190.29 52.2658 189.095 52.2684C187.566 52.2728 186.038 52.2976 184.509 52.3275C183.333 52.347 182.156 52.352 180.979 52.3531C180.416 52.356 179.853 52.3642 179.289 52.3779C174.886 52.477 174.886 52.477 173.563 51.3083C173.029 50.4772 172.66 49.6953 172.309 48.7752C172.059 48.2949 171.805 47.8171 171.544 47.3423C171.084 46.4446 170.626 45.546 170.169 44.6466C169.399 43.4426 169.14 43.2064 167.829 42.7287C166.591 42.6066 166.591 42.6066 165.208 42.6244C164.411 42.6206 164.411 42.6206 163.597 42.6167C163.018 42.6181 162.439 42.6198 161.86 42.6216C161.264 42.6211 160.669 42.6203 160.073 42.6193C158.826 42.6181 157.578 42.6198 156.331 42.6236C154.735 42.6282 153.139 42.6255 151.542 42.6207C150.313 42.6178 149.083 42.6187 147.853 42.6208C147.265 42.6213 146.676 42.6207 146.088 42.6188C145.264 42.6167 144.44 42.6204 143.617 42.6244C142.914 42.6253 142.914 42.6253 142.198 42.6263C140.929 42.7298 140.04 42.9704 138.907 43.5349C138.364 44.2194 138.364 44.2194 138.038 45.056C137.903 45.3553 137.768 45.6546 137.629 45.9629C137.496 46.2758 137.363 46.5886 137.226 46.9109C136.955 47.5278 136.683 48.144 136.408 48.7595C136.291 49.033 136.174 49.3065 136.053 49.5883C135.585 50.5119 135.128 51.2305 134.426 52C133.566 52.2048 133.566 52.2048 132.562 52.2086C132.185 52.2137 131.809 52.2188 131.421 52.224C131.014 52.2208 130.608 52.2175 130.19 52.2142C129.772 52.2157 129.353 52.2172 128.922 52.2188C128.037 52.2199 127.151 52.2169 126.266 52.2102C124.912 52.2016 123.559 52.2101 122.205 52.2205C121.345 52.2194 120.485 52.2173 119.624 52.2142C119.22 52.2174 118.815 52.2207 118.399 52.224C116.619 52.2002 115.575 52.1798 114.035 51.2396C113.181 50.3201 112.511 49.4074 111.843 48.3469C108.372 43.0426 104.443 38.038 100.496 33.0745C99.1285 31.3523 97.815 29.606 96.5421 27.814C94.7651 28.0179 93.9679 28.5549 92.6978 29.7791C90.7771 31.568 88.762 33.1718 86.6576 34.7444C84.8509 36.1138 84.8509 36.1138 83.5069 37.8915C83.3845 38.9352 83.3273 39.887 83.3271 40.9305C83.3217 41.2215 83.3163 41.5126 83.3108 41.8125C83.2942 42.7394 83.2853 43.6661 83.2778 44.593C83.2681 45.5228 83.2567 46.4525 83.2404 47.3822C83.2305 47.96 83.2244 48.5378 83.2226 49.1157C83.191 51.1033 83.191 51.1033 82.2849 52C80.5431 52.1605 78.7955 52.1326 77.047 52.1273C76.1778 52.126 75.3093 52.1354 74.4402 52.1457C73.8896 52.1466 73.3391 52.1469 72.7885 52.1464C72.0347 52.1482 72.0347 52.1482 71.2657 52.1501C70.8692 52.1006 70.4728 52.051 70.0643 52C69.0862 50.5481 69.0713 49.3764 68.995 47.6919C68.9714 47.2675 68.9714 47.2675 68.9473 46.8345C68.909 46.1379 68.8752 45.4411 68.8423 44.7442C67.212 46.8061 65.5975 48.8772 64.0209 50.9797C63.5467 51.5969 63.5467 51.5969 63.1394 52C62.5891 52.0374 62.0368 52.0474 61.4852 52.0458C61.1346 52.0457 60.7839 52.0457 60.4226 52.0457C60.0416 52.0436 59.6605 52.0415 59.268 52.0394C58.8797 52.0388 58.4915 52.0382 58.0916 52.0376C56.8463 52.0354 55.6011 52.0303 54.3559 52.0252C53.5139 52.0232 52.6718 52.0213 51.8298 52.0197C49.761 52.0152 47.6921 52.0083 45.6233 52C45.851 50.4589 46.2694 49.4682 47.1715 48.1973C47.4018 47.8692 47.6321 47.541 47.8693 47.2029C48.232 46.6967 48.232 46.6967 48.602 46.1802C49.3023 45.188 50.0024 44.1956 50.7019 43.2028C51.0814 42.6696 51.4661 42.1398 51.8599 41.6168C52.5051 40.7368 52.9349 39.9965 53.1816 38.9323C52.8362 37.3413 51.9432 36.2321 50.9698 34.9438C50.7823 34.6837 50.5949 34.4237 50.4017 34.1557C49.9192 33.5018 49.403 32.8725 48.8821 32.2481C48.6132 32.2481 48.3444 32.2481 48.0674 32.2481C47.3751 33.1515 46.7223 34.056 46.0816 34.9942C45.7287 35.5108 45.3734 36.0257 45.0155 36.5389C44.78 36.884 44.78 36.884 44.5399 37.2361C43.8418 38.074 43.3366 38.57 42.3645 39.1008C41.1782 39.2081 40.0757 39.2499 38.8909 39.2362C38.2 39.2412 37.5092 39.2465 36.8183 39.2519C35.7331 39.2535 34.648 39.2519 33.5628 39.246C32.5126 39.2426 31.463 39.2513 30.4129 39.2614C29.9284 39.2533 29.9284 39.2533 29.4342 39.2451C27.7858 39.2668 27.09 39.3458 25.7525 40.3776C24.8391 41.5312 23.9732 42.6887 23.149 43.9065C22.9991 44.1264 22.8493 44.3462 22.6949 44.5728C22.2225 45.2668 21.7532 45.9627 21.2841 46.6589C20.8086 47.3604 20.3324 48.0615 19.8559 48.7623C19.4271 49.3935 19.0001 50.0257 18.5731 50.658C17.9234 51.5969 17.9234 51.5969 17.5161 52C16.9658 52.0374 16.4135 52.0474 15.8619 52.0458C15.5113 52.0457 15.1606 52.0457 14.7993 52.0457C14.4183 52.0436 14.0373 52.0415 13.6447 52.0394C13.2565 52.0388 12.8683 52.0382 12.4683 52.0376C11.223 52.0354 9.97783 52.0303 8.7326 52.0252C7.89058 52.0232 7.04856 52.0213 6.20655 52.0197C4.13769 52.0152 2.06886 52.0083 1.84812e-05 52C-0.101693 50.4566 0.0552154 49.6557 0.957929 48.3957C1.2722 47.9494 1.2722 47.9494 1.59282 47.4942C1.9386 47.0184 1.9386 47.0184 2.29137 46.533C2.52924 46.1978 2.76711 45.8627 3.01219 45.5174C3.51586 44.8085 4.02152 44.101 4.52901 43.3947C5.26924 42.3623 6.00149 41.3249 6.73085 40.2849C8.14408 38.2712 9.56866 36.2657 10.9985 34.2636C11.3682 33.7451 11.3682 33.7451 11.7454 33.2163C12.4697 32.203 13.1974 31.1922 13.9263 30.1822C14.1466 29.874 14.3669 29.5658 14.5938 29.2483C14.7994 28.9652 15.005 28.682 15.2168 28.3903C15.396 28.1418 15.5751 27.8934 15.7597 27.6374C16.6271 26.6153 17.3162 26.2213 18.6528 26.0893C19.1132 26.0839 19.5736 26.0786 20.048 26.073C20.5699 26.065 21.0917 26.057 21.6294 26.0488C22.1991 26.044 22.7687 26.0393 23.3383 26.0346C23.9211 26.0271 24.5039 26.0192 25.0866 26.011C26.6195 25.9903 28.1524 25.9743 29.6853 25.9593C31.2499 25.9432 32.8144 25.9226 34.379 25.9024C37.4481 25.8634 40.5173 25.8293 43.5865 25.7985C43.306 24.5971 42.9777 23.7722 42.2595 22.7595C42.0731 22.494 41.8866 22.2285 41.6946 21.9549C41.3961 21.5379 41.3961 21.5379 41.0915 21.1124C40.7883 20.6841 40.7883 20.6841 40.4789 20.2471C40.0738 19.675 39.6679 19.1035 39.2612 18.5326C38.7698 17.8375 38.2891 17.1349 37.8104 16.4311C37.5657 16.072 37.321 15.713 37.0689 15.343C36.7539 14.8761 36.7539 14.8761 36.4324 14.3998C35.8538 13.59 35.8538 13.59 34.6248 13.3023C34.0709 13.2723 33.5155 13.2642 32.9608 13.2707C32.6276 13.2731 32.2943 13.2755 31.951 13.2779C31.592 13.2813 31.2331 13.2847 30.8632 13.2882C30.1005 13.2867 29.3378 13.2843 28.575 13.2811C27.3742 13.2768 26.1744 13.2771 24.9737 13.2926C23.8133 13.306 22.6545 13.2988 21.4941 13.2882C21.1384 13.2972 20.7828 13.3063 20.4163 13.3157C18.8685 13.2859 17.896 13.2098 16.6781 12.214C15.9448 11.397 15.2962 10.5702 14.6646 9.67442C14.4499 9.3812 14.2352 9.08798 14.014 8.78587C13.4333 7.98377 12.8758 7.16953 12.3224 6.34884C11.9429 5.79228 11.5631 5.23591 11.1831 4.67975C11.01 4.42384 10.837 4.16792 10.6588 3.90425C10.1604 3.17187 10.1604 3.17187 9.4391 2.32413C8.96173 1.61241 8.96173 1.61241 8.96173 2.86102e-06ZM200.824 11.6899C200.71 12.8255 200.71 12.8255 200.744 14.1495C200.747 14.6379 200.75 15.1264 200.752 15.6296C200.759 16.142 200.766 16.6543 200.773 17.1822C200.777 17.6976 200.78 18.2131 200.784 18.7442C200.794 20.0208 200.807 21.2972 200.824 22.5736C202.145 23.3477 203.128 23.4816 204.655 23.4842C205.316 23.488 205.316 23.488 205.991 23.4919C206.466 23.4902 206.941 23.4886 207.431 23.4869C207.923 23.4877 208.415 23.4885 208.923 23.4893C209.967 23.4898 211.01 23.4883 212.054 23.485C213.638 23.4807 215.222 23.4849 216.806 23.4901C217.822 23.4895 218.839 23.4885 219.855 23.4869C220.323 23.4886 220.792 23.4902 221.275 23.4919C226.545 23.5129 226.545 23.5129 231.426 21.843C233.024 19.9988 233.187 18.267 233.133 15.8973C232.94 14.4215 232.372 13.5893 231.375 12.4961C229.239 10.8831 226.921 10.8343 224.311 10.8252C223.809 10.8226 223.306 10.82 222.788 10.8174C221.982 10.8167 221.982 10.8167 221.16 10.816C220.599 10.8147 220.038 10.8134 219.477 10.8119C218.306 10.8095 217.135 10.8088 215.964 10.809C214.462 10.8091 212.96 10.8035 211.458 10.7966C210.302 10.7922 209.146 10.7913 207.99 10.7915C207.436 10.7911 206.881 10.7893 206.327 10.7862C205.555 10.7822 204.783 10.7839 204.011 10.7858C203.351 10.7849 203.351 10.7849 202.679 10.7841C201.571 10.7801 201.571 10.7801 200.824 11.6899ZM153.979 12.4961C151.968 16.4193 150.004 20.3652 148.058 24.3202C147.796 24.8522 147.533 25.3839 147.269 25.9152C146.893 26.6714 146.521 27.4291 146.15 28.1871C145.823 28.8507 145.823 28.8507 145.489 29.5276C144.938 30.621 144.938 30.621 145.017 31.845C146.183 32.4221 147.185 32.3004 148.487 32.3016C148.887 32.3022 148.887 32.3022 149.295 32.3028C149.863 32.303 150.43 32.3023 150.997 32.3006C151.847 32.2985 152.696 32.3006 153.545 32.3032C156.964 32.3047 160.349 32.1625 163.755 31.845C162.955 29.2511 161.937 26.8512 160.721 24.4238C160.55 24.08 160.38 23.7362 160.205 23.382C159.668 22.2969 159.127 21.2133 158.587 20.1298C158.219 19.3891 157.852 18.6482 157.485 17.9073C156.59 16.1024 155.692 14.2989 154.793 12.4961C154.524 12.4961 154.256 12.4961 153.979 12.4961Z" fill="url(#paint0_linear_5_25)" />
	<path d="M252.965 2.83122e-06C254.21 -0.143681 254.21 -0.143681 255.792 -0.132265C256.071 -0.13151 256.349 -0.130754 256.635 -0.129977C257.223 -0.127266 257.811 -0.121655 258.399 -0.113369C259.302 -0.100802 260.205 -0.0968535 261.108 -0.0944739C265.526 -0.0658475 265.526 -0.0658474 266 0.403104C266.04 1.06523 266.051 1.72907 266.052 2.39238C266.053 2.8231 266.054 3.25383 266.055 3.6976C266.054 4.17422 266.054 4.65084 266.053 5.1419C266.053 5.64063 266.054 6.13937 266.055 6.65321C266.056 8.02489 266.056 9.39654 266.055 10.7682C266.054 12.2007 266.055 13.6332 266.055 15.0656C266.056 17.4717 266.055 19.8777 266.053 22.2837C266.051 25.0692 266.052 27.8547 266.054 30.6402C266.056 33.0277 266.056 35.4151 266.055 37.8025C266.054 39.2303 266.054 40.658 266.056 42.0857C266.057 43.6765 266.055 45.2673 266.053 46.8581C266.054 47.3347 266.054 47.8113 266.055 48.3024C266.054 48.7331 266.053 49.1638 266.052 49.6076C266.052 49.9842 266.051 50.3609 266.051 50.7489C266 51.5969 266 51.5969 265.593 52C263.801 52.0976 262.006 52.0921 260.211 52.0968C259.309 52.1007 258.407 52.1133 257.505 52.126C256.934 52.1286 256.363 52.1307 255.792 52.1323C255.27 52.136 254.748 52.1398 254.21 52.1437C253.799 52.0963 253.388 52.0488 252.965 52C252.075 50.6789 252.048 50.3016 252.047 48.7711C252.044 48.354 252.042 47.9369 252.04 47.5072C252.041 47.0498 252.043 46.5924 252.045 46.1212C252.043 45.6394 252.042 45.1575 252.04 44.6611C252.037 43.3394 252.038 42.0177 252.041 40.696C252.043 39.3134 252.041 37.9308 252.04 36.5482C252.038 34.2263 252.04 31.9044 252.044 29.5824C252.048 26.8972 252.047 24.212 252.042 21.5268C252.039 19.2222 252.038 16.9176 252.04 14.6129C252.042 13.2361 252.042 11.8593 252.039 10.4825C252.037 8.94789 252.04 7.4134 252.045 5.87882C252.043 5.42144 252.041 4.96407 252.04 4.49283C252.042 4.07573 252.044 3.65863 252.047 3.22889C252.047 2.86595 252.047 2.503 252.048 2.12906C252.15 1.20931 252.15 1.20931 252.965 2.83122e-06Z" fill="url(#paint1_linear_5_25)" />
	<defs>
		<linearGradient id="paint0_linear_5_25" x1="-0.0270386" y1="26.0509" x2="266.056" y2="26.0509" gradientUnits="userSpaceOnUse">
			<stop stop-color="#BC4172" />
			<stop offset="1" stop-color="#303975" />
		</linearGradient>
		<linearGradient id="paint1_linear_5_25" x1="-0.0270386" y1="26.0509" x2="266.056" y2="26.0509" gradientUnits="userSpaceOnUse">
			<stop stop-color="#BC4172" />
			<stop offset="1" stop-color="#303975" />
		</linearGradient>
	</defs>
</svg>
