<svg width="24" height="29" viewBox="0 0 24 29" fill="none" xmlns="http://www.w3.org/2000/svg">
	<path d="M12 16.5714C10.2319 16.5714 8.5362 15.844 7.28595 14.5491C6.03571 13.2542 5.33333 11.4979 5.33333 9.66667H8C8 10.7654 8.42143 11.8192 9.17157 12.5961C9.92172 13.373 10.9391 13.8095 12 13.8095C13.0609 13.8095 14.0783 13.373 14.8284 12.5961C15.5786 11.8192 16 10.7654 16 9.66667H18.6667C18.6667 11.4979 17.9643 13.2542 16.714 14.5491C15.4638 15.844 13.7681 16.5714 12 16.5714ZM12 2.7619C13.0609 2.7619 14.0783 3.19838 14.8284 3.97532C15.5786 4.75226 16 5.80601 16 6.90476H8C8 5.80601 8.42143 4.75226 9.17157 3.97532C9.92172 3.19838 10.9391 2.7619 12 2.7619ZM21.3333 6.90476H18.6667C18.6667 5.99802 18.4942 5.10015 18.1592 4.26242C17.8242 3.4247 17.3331 2.66352 16.714 2.02236C16.095 1.38119 15.3601 0.87259 14.5512 0.525594C13.7424 0.178597 12.8755 0 12 0C10.2319 0 8.5362 0.727464 7.28595 2.02236C6.03571 3.31725 5.33333 5.0735 5.33333 6.90476H2.66667C1.18667 6.90476 0 8.13381 0 9.66667V26.2381C0 26.9706 0.280951 27.6731 0.781048 28.1911C1.28115 28.709 1.95942 29 2.66667 29H21.3333C22.0406 29 22.7189 28.709 23.219 28.1911C23.719 27.6731 24 26.9706 24 26.2381V9.66667C24 8.93416 23.719 8.23166 23.219 7.7137C22.7189 7.19575 22.0406 6.90476 21.3333 6.90476Z" fill="#737791" />
</svg>
