<svg width="22" height="28" viewBox="0 0 22 28" fill="none" xmlns="http://www.w3.org/2000/svg">
	<path d="M20 0H6.87L0 6.86V17H7.2L3.95 13.75C3.78617 13.5587 3.70057 13.3126 3.71029 13.0609C3.72001 12.8093 3.82434 12.5705 4.00244 12.3924C4.18053 12.2143 4.41927 12.11 4.67095 12.1003C4.92262 12.0906 5.1687 12.1762 5.36 12.34L11 18L5.32 23.68C5.1287 23.8438 4.88262 23.9294 4.63095 23.9197C4.37927 23.91 4.14053 23.8057 3.96244 23.6276C3.78434 23.4495 3.68001 23.2107 3.67029 22.9591C3.66057 22.7074 3.74617 22.4613 3.91 22.27L7.23 19H0V26C0 26.5304 0.210714 27.0391 0.585787 27.4142C0.96086 27.7893 1.46957 28 2 28H20C20.5304 28 21.0391 27.7893 21.4142 27.4142C21.7893 27.0391 22 26.5304 22 26V2C22 1.46957 21.7893 0.960859 21.4142 0.585786C21.0391 0.210714 20.5304 0 20 0ZM8 8H2V7.68L7.69 2H8V8Z" fill="#737791" />
</svg>
