<svg width="35" height="35" viewBox="0 0 35 35" fill="none" xmlns="http://www.w3.org/2000/svg">
	<path d="M28.1021 7.77292C26.1625 6.86875 24.0625 6.2125 21.875 5.83333C21.8558 5.83272 21.8368 5.83632 21.8191 5.84388C21.8015 5.85144 21.7857 5.86277 21.7729 5.87708C21.5104 6.35833 21.2042 6.98542 21 7.46667C18.6798 7.11667 16.3202 7.11667 14 7.46667C13.7958 6.97083 13.4896 6.35833 13.2125 5.87708C13.1979 5.84792 13.1542 5.83333 13.1104 5.83333C10.9229 6.2125 8.83751 6.86875 6.88334 7.77292C6.86876 7.77292 6.85418 7.7875 6.83959 7.80208C2.87293 13.7375 1.77917 19.5125 2.31876 25.2292C2.31876 25.2583 2.33334 25.2875 2.36251 25.3021C4.98751 27.2271 7.51043 28.3938 10.0042 29.1667C10.0479 29.1813 10.0917 29.1667 10.1063 29.1375C10.6896 28.3354 11.2146 27.4896 11.6667 26.6C11.6958 26.5417 11.6667 26.4833 11.6083 26.4688C10.7771 26.1479 9.98959 25.7688 9.21668 25.3313C9.15834 25.3021 9.15834 25.2146 9.20209 25.1708C9.36251 25.0542 9.52292 24.9229 9.68334 24.8063C9.71251 24.7771 9.75626 24.7771 9.78543 24.7917C14.8021 27.0813 20.2125 27.0813 25.1708 24.7917C25.2 24.7771 25.2438 24.7771 25.2729 24.8063C25.4333 24.9375 25.5938 25.0542 25.7542 25.1854C25.8125 25.2292 25.8125 25.3167 25.7396 25.3458C24.9813 25.7979 24.1792 26.1625 23.3479 26.4833C23.2896 26.4979 23.275 26.5708 23.2896 26.6146C23.7563 27.5042 24.2813 28.35 24.85 29.1521C24.8938 29.1667 24.9375 29.1813 24.9813 29.1667C27.4896 28.3938 30.0125 27.2271 32.6375 25.3021C32.6667 25.2875 32.6813 25.2583 32.6813 25.2292C33.3229 18.6229 31.6167 12.8917 28.1604 7.80208C28.1458 7.7875 28.1313 7.77292 28.1021 7.77292ZM12.425 21.7438C10.9229 21.7438 9.66876 20.3583 9.66876 18.6521C9.66876 16.9458 10.8938 15.5604 12.425 15.5604C13.9708 15.5604 15.1958 16.9604 15.1813 18.6521C15.1813 20.3583 13.9563 21.7438 12.425 21.7438ZM22.5896 21.7438C21.0875 21.7438 19.8333 20.3583 19.8333 18.6521C19.8333 16.9458 21.0583 15.5604 22.5896 15.5604C24.1354 15.5604 25.3604 16.9604 25.3458 18.6521C25.3458 20.3583 24.1354 21.7438 22.5896 21.7438Z" fill="#737791" />
</svg>
