<svg width="35" height="35" viewBox="0 0 35 35" fill="none" xmlns="http://www.w3.org/2000/svg">
	<path d="M32.7542 8.74992C31.6313 9.26034 30.4208 9.59575 29.1667 9.75617C30.45 8.98325 31.4417 7.75825 31.9083 6.28534C30.6979 7.0145 29.3563 7.52492 27.9417 7.81659C26.7896 6.56242 25.1709 5.83325 23.3334 5.83325C19.9063 5.83325 17.1063 8.63325 17.1063 12.0895C17.1063 12.5853 17.1646 13.0666 17.2667 13.5187C12.075 13.2562 7.4521 10.7624 4.37502 6.98534C3.83543 7.90409 3.52918 8.98325 3.52918 10.1208C3.52918 12.2937 4.62293 14.2187 6.3146 15.3124C5.27918 15.3124 4.31668 15.0208 3.47085 14.5833V14.627C3.47085 17.6603 5.62918 20.1978 8.48752 20.7666C7.56983 21.0177 6.60641 21.0527 5.67293 20.8687C6.06903 22.1119 6.84476 23.1997 7.89108 23.9792C8.93741 24.7587 10.2017 25.1907 11.5063 25.2145C9.29489 26.9651 6.55376 27.9114 3.73335 27.8978C3.23752 27.8978 2.74168 27.8687 2.24585 27.8103C5.01668 29.5895 8.31252 30.6249 11.8417 30.6249C23.3334 30.6249 29.6479 21.0874 29.6479 12.8187C29.6479 12.5416 29.6479 12.2791 29.6333 12.002C30.8583 11.127 31.9083 10.0187 32.7542 8.74992Z" fill="white" />
</svg>
