<svg width="47" height="47" viewBox="0 0 47 47" fill="none" xmlns="http://www.w3.org/2000/svg">
	<circle cx="23.4452" cy="23.6212" r="23.2226" fill="#24B0FF" />
	<path fill-rule="evenodd" clip-rule="evenodd" d="M23.5324 8.99988C19.9722 8.99988 16.7287 10.1759 14.8095 11.1367C14.6361 11.2234 14.4745 11.3085 14.324 11.3905C14.026 11.5528 13.7722 11.7042 13.5704 11.8374L15.7537 15.0516L16.7815 15.4607C20.7982 17.4872 26.1847 17.4872 30.2021 15.4607L31.3687 14.8554L33.4329 11.8374C33.0054 11.5584 32.5607 11.3065 32.1017 11.0831C30.1919 10.1325 27.0249 8.99988 23.5324 8.99988ZM18.4557 12.6382C17.6825 12.4935 16.9189 12.3019 16.1691 12.0644C17.967 11.2659 20.6461 10.4186 23.5332 10.4186C25.5329 10.4186 27.4237 10.8253 28.9875 11.3408C27.155 11.5986 25.1995 12.036 23.3362 12.5743C21.8701 12.9984 20.1566 12.9527 18.4557 12.6382ZM31.0353 16.6296L30.8414 16.7273C26.4227 18.9563 20.5617 18.9563 16.1431 16.7273L15.9595 16.6343C9.32049 23.918 4.2524 37.3725 23.5324 37.3725C42.8125 37.3725 37.6214 23.6682 31.0353 16.6296ZM22.7135 23.1874C22.2954 23.1874 21.8945 23.3535 21.5988 23.6491C21.3032 23.9447 21.1371 24.3457 21.1371 24.7638C21.1371 25.1819 21.3032 25.5828 21.5988 25.8784C21.8945 26.1741 22.2954 26.3402 22.7135 26.3402V23.1874ZM24.2899 21.611V20.8228H22.7135V21.611C21.8773 21.611 21.0754 21.9432 20.4841 22.5344C19.8929 23.1257 19.5607 23.9276 19.5607 24.7638C19.5607 25.5999 19.8929 26.4019 20.4841 26.9931C21.0754 27.5844 21.8773 27.9165 22.7135 27.9165V31.0693C22.0278 31.0693 21.4437 30.6319 21.2262 30.0187C21.1939 29.9183 21.1418 29.8255 21.0731 29.7456C21.0043 29.6658 20.9202 29.6006 20.8257 29.5538C20.7313 29.507 20.6284 29.4796 20.5232 29.4733C20.418 29.4669 20.3126 29.4818 20.2133 29.5169C20.1139 29.552 20.0226 29.6067 19.9447 29.6777C19.8669 29.7487 19.804 29.8346 19.7599 29.9303C19.7158 30.0261 19.6914 30.1297 19.6881 30.235C19.6847 30.3403 19.7025 30.4453 19.7404 30.5436C19.9578 31.1584 20.3605 31.6906 20.8929 32.0671C21.4254 32.4435 22.0614 32.6457 22.7135 32.6457V33.4339H24.2899V32.6457C25.1261 32.6457 25.928 32.3135 26.5192 31.7223C27.1105 31.131 27.4427 30.3291 27.4427 29.4929C27.4427 28.6568 27.1105 27.8548 26.5192 27.2636C25.928 26.6723 25.1261 26.3402 24.2899 26.3402V23.1874C24.9756 23.1874 25.5597 23.6248 25.7772 24.238C25.8095 24.3384 25.8616 24.4312 25.9303 24.5111C25.9991 24.5909 26.0832 24.6561 26.1776 24.7029C26.2721 24.7497 26.3749 24.7771 26.4801 24.7834C26.5853 24.7898 26.6907 24.7749 26.7901 24.7398C26.8895 24.7047 26.9808 24.65 27.0587 24.579C27.1365 24.508 27.1994 24.4221 27.2435 24.3264C27.2875 24.2306 27.312 24.127 27.3153 24.0217C27.3187 23.9164 27.3009 23.8114 27.263 23.7131C27.0455 23.0983 26.6429 22.5661 26.1105 22.1896C25.578 21.8132 24.942 21.611 24.2899 21.611ZM24.2899 27.9165V31.0693C24.708 31.0693 25.1089 30.9032 25.4046 30.6076C25.7002 30.312 25.8663 29.911 25.8663 29.4929C25.8663 29.0748 25.7002 28.6739 25.4046 28.3783C25.1089 28.0826 24.708 27.9165 24.2899 27.9165Z" fill="white" />
</svg>
