<svg width="47" height="47" viewBox="0 0 47 47" fill="none" xmlns="http://www.w3.org/2000/svg">
	<circle cx="23.4435" cy="23.6212" r="23.2226" fill="#3EFF7F" />
	<path d="M23.4436 24.7823C21.9038 24.7823 20.4271 24.1706 19.3384 23.0819C18.2496 21.9931 17.6379 20.5164 17.6379 18.9767H19.9602C19.9602 19.9005 20.3272 20.7865 20.9804 21.4398C21.6337 22.0931 22.5197 22.4601 23.4436 22.4601C24.3674 22.4601 25.2534 22.0931 25.9067 21.4398C26.56 20.7865 26.927 19.9005 26.927 18.9767H29.2492C29.2492 20.5164 28.6376 21.9931 27.5488 23.0819C26.46 24.1706 24.9833 24.7823 23.4436 24.7823ZM23.4436 13.171C24.3674 13.171 25.2534 13.538 25.9067 14.1913C26.56 14.8445 26.927 15.7306 26.927 16.6544H19.9602C19.9602 15.7306 20.3272 14.8445 20.9804 14.1913C21.6337 13.538 22.5197 13.171 23.4436 13.171ZM31.5715 16.6544H29.2492C29.2492 15.892 29.0991 15.1371 28.8073 14.4327C28.5155 13.7283 28.0879 13.0883 27.5488 12.5492C27.0097 12.0101 26.3697 11.5824 25.6653 11.2907C24.9609 10.9989 24.206 10.8488 23.4436 10.8488C21.9038 10.8488 20.4271 11.4604 19.3384 12.5492C18.2496 13.638 17.6379 15.1146 17.6379 16.6544H15.3157C14.0268 16.6544 12.9934 17.6878 12.9934 18.9767V32.9102C12.9934 33.5261 13.2381 34.1168 13.6736 34.5523C14.1091 34.9878 14.6998 35.2325 15.3157 35.2325H31.5715C32.1874 35.2325 32.7781 34.9878 33.2136 34.5523C33.6491 34.1168 33.8937 33.5261 33.8937 32.9102V18.9767C33.8937 18.3608 33.6491 17.7701 33.2136 17.3346C32.7781 16.8991 32.1874 16.6544 31.5715 16.6544Z" fill="white" />
</svg>
