<svg width="47" height="47" viewBox="0 0 47 47" fill="none" xmlns="http://www.w3.org/2000/svg">
	<circle cx="23.4452" cy="23.6212" r="23.2226" fill="#0CE215" />
	<path d="M17.6396 27.1046H19.9618C19.9618 28.3586 21.5526 29.4268 23.4452 29.4268C25.3378 29.4268 26.9286 28.3586 26.9286 27.1046C26.9286 25.8273 25.721 25.3629 23.1665 24.7475C20.7049 24.1321 17.6396 23.3657 17.6396 20.1378C17.6396 18.0594 19.3464 16.2945 21.7035 15.7023V13.171H25.1869V15.7023C27.544 16.2945 29.2509 18.0594 29.2509 20.1378H26.9286C26.9286 18.8838 25.3378 17.8155 23.4452 17.8155C21.5526 17.8155 19.9618 18.8838 19.9618 20.1378C19.9618 21.415 21.1694 21.8795 23.7239 22.4949C26.1855 23.1103 29.2509 23.8766 29.2509 27.1046C29.2509 29.183 27.544 30.9479 25.1869 31.5401V34.0714H21.7035V31.5401C19.3464 30.9479 17.6396 29.183 17.6396 27.1046Z" fill="white" />
</svg>
