<svg width="48" height="48" viewBox="0 0 48 48" fill="none" xmlns="http://www.w3.org/2000/svg">
	<path d="M33.3753 17.1263C33.7109 14.9379 33.3753 13.479 32.2005 12.1323C30.9139 10.6172 28.5644 10 25.5437 10H16.8729C16.2576 10 15.7541 10.4489 15.6422 11.0661L12.0061 34.0721C11.9502 34.521 12.2858 34.9138 12.7333 34.9138H18.1036L17.712 37.2705C17.6561 37.6633 17.9358 38 18.3833 38H22.9145C23.4739 38 23.9214 37.6072 23.9773 37.1022L24.9283 31.1543C24.9842 30.6493 25.4877 30.2565 25.9912 30.2565H26.6625C31.0258 30.2565 34.4941 28.4609 35.501 23.2986C35.8926 21.1663 35.7248 19.3146 34.606 18.0802C34.2703 17.6874 33.8788 17.4068 33.3753 17.1263Z" fill="#009CDE" />
	<path d="M33.3753 17.1263C33.7109 14.9379 33.3753 13.479 32.2005 12.1323C30.9139 10.6172 28.5644 10 25.5436 10H16.8729C16.2576 10 15.7541 10.4489 15.6422 11.0661L12.0061 34.0721C11.9502 34.521 12.2858 34.9138 12.7333 34.9138H18.1036L19.3902 26.6092C19.5021 25.992 20.0056 25.5431 20.6209 25.5431H23.1942C28.2288 25.5431 32.1446 23.523 33.2634 17.5751C33.3193 17.4629 33.3193 17.2946 33.3753 17.1263Z" fill="#012169" />
	<path d="M20.9006 17.1824C20.9565 16.7896 21.46 16.2846 21.9635 16.2846H28.7882C29.5714 16.2846 30.3545 16.3407 31.0258 16.4529C31.6411 16.5651 32.7599 16.8457 33.3194 17.1824C33.655 14.994 33.3194 13.5351 32.1446 12.1884C30.9139 10.6172 28.5644 10 25.5437 10H16.8729C16.2576 10 15.7541 10.4489 15.6422 11.0661L12.0061 34.0721C11.9502 34.521 12.2858 34.9138 12.7333 34.9138H18.1036L20.9006 17.1824Z" fill="#003087" />
</svg>
