<svg width="32" height="32" viewBox="0 0 32 32" fill="none" xmlns="http://www.w3.org/2000/svg">
	<path d="M27.414 24.586L22.337 19.509C23.386 17.928 24 16.035 24 14C24 8.486 19.514 4 14 4C8.486 4 4 8.486 4 14C4 19.514 8.486 24 14 24C16.035 24 17.928 23.386 19.509 22.337L24.586 27.414C25.366 28.195 26.634 28.195 27.414 27.414C28.195 26.633 28.195 25.367 27.414 24.586ZM7 14C7 10.14 10.14 7 14 7C17.86 7 21 10.14 21 14C21 17.86 17.86 21 14 21C10.14 21 7 17.86 7 14Z" fill="url(#paint0_linear_0_151)" />
	<defs>
		<linearGradient id="paint0_linear_0_151" x1="4" y1="15.9999" x2="27.9998" y2="15.9999" gradientUnits="userSpaceOnUse">
			<stop stop-color="#BC4172" />
			<stop offset="1" stop-color="#303975" />
		</linearGradient>
	</defs>
</svg>
