<svg width="48" height="48" viewBox="0 0 48 48" fill="none" xmlns="http://www.w3.org/2000/svg">
	<path fill-rule="evenodd" clip-rule="evenodd" d="M21.2002 31.0477H17.7979L19.9259 18.2329H23.3281L21.2002 31.0477Z" fill="#0742A6" />
	<path fill-rule="evenodd" clip-rule="evenodd" d="M33.5349 18.5461C32.8638 18.2868 31.7994 18.0005 30.4833 18.0005C27.1234 18.0005 24.7574 19.7454 24.7429 22.2401C24.7149 24.0806 26.4369 25.1029 27.7247 25.7166C29.041 26.3437 29.4885 26.7531 29.4885 27.312C29.4751 28.1705 28.4248 28.5663 27.4453 28.5663C26.0869 28.5663 25.3591 28.3622 24.253 27.8846L23.805 27.6799L23.3289 30.5565C24.1268 30.9106 25.597 31.2247 27.1234 31.2385C30.6934 31.2385 33.0175 29.5206 33.0451 26.8621C33.0586 25.4033 32.1494 24.2856 30.1892 23.3722C28.9992 22.7858 28.2704 22.3905 28.2704 21.7905C28.2844 21.2451 28.8868 20.6865 30.2301 20.6865C31.3362 20.6591 32.1488 20.9181 32.7645 21.1772L33.0722 21.3133L33.5349 18.5461Z" fill="#0742A6" />
	<path fill-rule="evenodd" clip-rule="evenodd" d="M39.624 18.2329H42.2557L45.0005 31.0475H41.8503C41.8503 31.0475 41.542 29.5751 41.4443 29.1252H37.076C36.9497 29.4658 36.362 31.0475 36.362 31.0475H32.792L37.8457 19.2962C38.1959 18.4645 38.8125 18.2329 39.624 18.2329ZM39.415 22.9224C39.415 22.9224 38.3368 25.7717 38.0566 26.5079H40.8846C40.7447 25.8672 40.1004 22.7997 40.1004 22.7997L39.8626 21.6955C39.7625 21.9799 39.6177 22.3708 39.5201 22.6344C39.4538 22.8132 39.4093 22.9334 39.415 22.9224Z" fill="#0742A6" />
	<path fill-rule="evenodd" clip-rule="evenodd" d="M14.9567 18.2329L11.6247 26.9713L11.2606 25.1991C10.6446 23.1541 8.71261 20.9323 6.55664 19.8276L9.60864 31.0341H13.2065L18.5544 18.2329H14.9567V18.2329Z" fill="#0742A6" />
	<path fill-rule="evenodd" clip-rule="evenodd" d="M8.53003 18.2329H3.056L3 18.4918C7.27008 19.5553 10.0981 22.1186 11.26 25.1996L10.07 19.3101C9.87407 18.4917 9.272 18.2599 8.53003 18.2329Z" fill="#0742A6" />
</svg>
