<svg width="47" height="47" viewBox="0 0 47 47" fill="none" xmlns="http://www.w3.org/2000/svg">
	<circle cx="23.4452" cy="23.6212" r="23.2226" fill="#FFC85E" />
	<path d="M23.4452 24.7823C21.9054 24.7823 20.4288 24.1706 19.34 23.0819C18.2512 21.9931 17.6395 20.5164 17.6395 18.9767H19.9618C19.9618 19.9005 20.3288 20.7865 20.9821 21.4398C21.6353 22.0931 22.5213 22.4601 23.4452 22.4601C24.369 22.4601 25.2551 22.0931 25.9083 21.4398C26.5616 20.7865 26.9286 19.9005 26.9286 18.9767H29.2508C29.2508 20.5164 28.6392 21.9931 27.5504 23.0819C26.4616 24.1706 24.985 24.7823 23.4452 24.7823ZM23.4452 13.171C24.369 13.171 25.2551 13.538 25.9083 14.1913C26.5616 14.8445 26.9286 15.7306 26.9286 16.6544H19.9618C19.9618 15.7306 20.3288 14.8445 20.9821 14.1913C21.6353 13.538 22.5213 13.171 23.4452 13.171ZM31.5731 16.6544H29.2508C29.2508 15.892 29.1007 15.1371 28.8089 14.4327C28.5172 13.7283 28.0895 13.0883 27.5504 12.5492C27.0113 12.0101 26.3713 11.5824 25.6669 11.2907C24.9625 10.9989 24.2076 10.8488 23.4452 10.8488C21.9054 10.8488 20.4288 11.4604 19.34 12.5492C18.2512 13.638 17.6395 15.1146 17.6395 16.6544H15.3173C14.0284 16.6544 12.995 17.6878 12.995 18.9767V32.9102C12.995 33.5261 13.2397 34.1168 13.6752 34.5523C14.1107 34.9878 14.7014 35.2325 15.3173 35.2325H31.5731C32.189 35.2325 32.7797 34.9878 33.2152 34.5523C33.6507 34.1168 33.8954 33.5261 33.8954 32.9102V18.9767C33.8954 18.3608 33.6507 17.7701 33.2152 17.3346C32.7797 16.8991 32.189 16.6544 31.5731 16.6544Z" fill="white" />
</svg>
